<?xml version="1.0" encoding="utf-8"?>
<!-- Generator: Adobe Illustrator 25.0.0, SVG Export Plug-In . SVG Version: 6.00 Build 0)  -->
<svg version="1.1" xmlns="http://www.w3.org/2000/svg" xmlns:xlink="http://www.w3.org/1999/xlink" x="0px" y="0px"
	 viewBox="0 0 144 144" style="enable-background:new 0 0 144 144;" xml:space="preserve">
<style type="text/css">
	.st0{fill:#151515;}
	.st1{fill:#FFFFFF;}
	.st2{fill-rule:evenodd;clip-rule:evenodd;fill:#FFFFFF;}
</style>
<g id="Layer_2">
	<rect class="st0" width="144" height="144"/>
</g>
<g id="Layer_1">
	<path class="st1" d="M131.8,58.4h-0.4v-2.5h-0.9v-0.4h2.2v0.4h-0.9L131.8,58.4L131.8,58.4z"/>
	<path class="st1" d="M73.3,2.3l-0.4-1c0-0.1-0.1-0.2-0.1-0.4c0,0.1,0,0.3,0,0.4v1h-0.2V0.5h0.3l0.4,1.1c0.1,0.2,0.1,0.2,0.1,0.3
		c0-0.2,0.1-0.2,0.1-0.3l0.4-1.1h0.3v1.7H74v-1c0-0.1,0-0.2,0-0.4c0,0.1-0.1,0.2-0.1,0.4l-0.4,1H73.3z"/>
	<path class="st1" d="M34.7,55.6l-7.5,19.1l-7.5-19.1h-5.6l10.3,26.2l-3.8,9.8h5.6l14.1-36H34.7z"/>
	<path class="st2" d="M42.9,68.7c0-7.3,6.1-13.2,13.6-13.2s13.6,5.9,13.6,13.2c0,7.3-6.1,13.2-13.6,13.2S42.9,76,42.9,68.7z
		 M48.2,68.7c0,4.5,3.7,8.1,8.3,8.1s8.3-3.6,8.3-8.1c0-4.5-3.7-8.1-8.3-8.1C51.9,60.6,48.2,64.2,48.2,68.7z"/>
	<path class="st1" d="M93.3,55.6l-7.5,19.1l-7.5-19.1h-5.6L83,81.8l-3.8,9.8h5.6l14.1-36H93.3z"/>
	<path class="st2" d="M101.5,68.7c0-7.3,6.1-13.2,13.6-13.2c7.5,0,13.6,5.9,13.6,13.2c0,7.3-6.1,13.2-13.6,13.2
		C107.6,81.9,101.5,76,101.5,68.7z M106.8,68.7c0,4.5,3.7,8.1,8.3,8.1c4.6,0,8.3-3.6,8.3-8.1c0-4.5-3.7-8.1-8.3-8.1
		C110.5,60.6,106.8,64.2,106.8,68.7z"/>
</g>
</svg>
