<svg width="75" height="23" viewBox="0 0 75 23" fill="none" xmlns="http://www.w3.org/2000/svg">
<path d="M71.6789 2.25024H71.4246V0.744619H70.8737V0.531494H72.2228V0.744619H71.6718V2.25024H71.6789Z" fill="white"/>
<path d="M73.2893 2.25024L72.8797 1.21899C72.8302 1.08837 72.7949 0.971494 72.7596 0.861494C72.7667 0.992119 72.7737 1.12962 72.7737 1.23962V2.25024H72.5336V0.531494H72.8444L73.2823 1.63149C73.3388 1.78274 73.3459 1.79649 73.3882 1.93399C73.4377 1.78274 73.4589 1.72087 73.4942 1.63837L73.9321 0.531494H74.2358V2.25024H73.9957V1.23962C73.9957 1.12274 74.0027 0.998994 74.0098 0.861494C73.9674 0.998994 73.9392 1.09524 73.8827 1.23962L73.4801 2.25024H73.2893Z" fill="white"/>
<path d="M12.5728 0.531494L8.00982 12.1502L3.4469 0.531494H0.0423584L6.30756 16.4815L3.96958 22.4352H7.37412L15.9773 0.531494H12.5728Z" fill="white"/>
<path fill-rule="evenodd" clip-rule="evenodd" d="M17.5807 8.54086C17.5807 4.09273 21.2819 0.490234 25.8519 0.490234C30.4219 0.490234 34.1231 4.09273 34.1231 8.54086C34.1231 12.989 30.4219 16.5915 25.8519 16.5915C21.2819 16.5915 17.5807 12.989 17.5807 8.54086ZM20.7945 8.53399C20.7945 11.2565 23.0619 13.4565 25.8519 13.4565C28.6419 13.4565 30.9092 11.2565 30.9092 8.53399C30.9092 5.81148 28.6419 3.61148 25.8519 3.61148C23.0548 3.61148 20.7945 5.81836 20.7945 8.53399Z" fill="white"/>
<path d="M48.2569 0.531494L43.6939 12.1502L39.1381 0.531494H35.7335L41.9917 16.4815L39.6607 22.4352H43.0582L51.6614 0.531494H48.2569Z" fill="white"/>
<path fill-rule="evenodd" clip-rule="evenodd" d="M53.2719 8.54086C53.2719 4.09273 56.9731 0.490234 61.543 0.490234C66.106 0.490234 69.8142 4.09273 69.8142 8.54086C69.8142 12.989 66.113 16.5915 61.543 16.5915C56.9731 16.5915 53.2719 12.989 53.2719 8.54086ZM56.4857 8.53399C56.4857 11.2565 58.753 13.4565 61.543 13.4565C64.3331 13.4565 66.5933 11.2565 66.6004 8.53399C66.6004 5.81148 64.3331 3.61148 61.543 3.61148C58.746 3.61148 56.4857 5.81836 56.4857 8.53399Z" fill="white"/>
</svg>
